<svg xmlns="http://www.w3.org/2000/svg" viewBox="0 0 2177.411 857.892"><title>Cacao logo</title><path d="M450.016,491.764c57.946,18,79.663,113.895,48.5,214.19s-103.4,167-161.347,149.005-79.663-113.911-48.5-214.206S392.054,473.75,450.016,491.764Z" fill="#ba6323"/><ellipse cx="402.453" cy="187.084" rx="109.87" ry="190.16" transform="translate(-31.32 93.224) rotate(-12.722)" fill="#ba6323"/><ellipse cx="190.064" cy="426.834" rx="109.87" ry="190.16" transform="translate(-243.899 600.006) rotate(-87.751)" fill="#ba6323"/><ellipse cx="334.733" cy="460.861" rx="71.31" ry="23.77" transform="translate(-126.591 126.766) rotate(-18.096)" fill="#fff"/><ellipse cx="335.297" cy="400.637" rx="23.77" ry="71.31" transform="translate(-150.399 593.077) rotate(-71.688)" fill="#fff"/><ellipse cx="406.342" cy="325.023" rx="23.77" ry="71.31" transform="translate(-96.446 191.015) rotate(-23.731)" fill="#fff"/><ellipse cx="466.331" cy="319.671" rx="71.31" ry="23.77" transform="translate(52.116 704.482) rotate(-77.323)" fill="#fff"/><ellipse cx="461.471" cy="550.908" rx="23.77" ry="71.31" transform="translate(-58.945 55.305) rotate(-6.448)" fill="#fff"/><ellipse cx="402.601" cy="538.196" rx="71.31" ry="23.77" transform="translate(-264.736 618.222) rotate(-60.04)" fill="#fff"/><path d="M544.156,430.881c0-94.314,69.47-158.724,157.8-158.724,54.288,0,92.014,26.224,116.4,60.729L786.151,350.83c-17.482-25.765-49.227-44.627-84.192-44.627-67.17,0-118.237,51.527-118.237,124.679,0,72.69,51.067,124.678,118.237,124.678,34.965,0,66.71-18.4,84.192-44.626l32.665,17.942C793.053,563.84,756.247,589.6,701.959,589.6,613.626,589.6,544.156,525.195,544.156,430.881Z" fill="#ba6323"/><path d="M1119.7,584.083l-27.144-68.09H939.818l-27.144,68.09H868.968l123.3-306.865h47.387l123.758,306.865Zm-103.515-267.3L950.86,481.949h130.2Z" fill="#ba6323"/><path d="M1208.5,430.881c0-94.314,69.471-158.724,157.8-158.724,54.287,0,92.013,26.224,116.4,60.729l-32.2,17.943c-17.483-25.765-49.228-44.627-84.192-44.627-67.17,0-118.238,51.527-118.238,124.679,0,72.69,51.068,124.678,118.238,124.678,34.965,0,66.709-18.4,84.192-44.626l32.664,17.942C1457.4,563.84,1420.592,589.6,1366.3,589.6,1277.972,589.6,1208.5,525.195,1208.5,430.881Z" fill="#ba6323"/><path d="M1784.05,584.083l-27.145-68.09H1604.163l-27.145,68.09h-43.706l123.3-306.865H1704l123.758,306.865Zm-103.516-267.3L1615.2,481.949h130.2Z" fill="#ba6323"/><path d="M1872.847,430.881c0-90.634,61.188-158.724,152.282-158.724,90.633,0,152.282,68.09,152.282,158.724S2115.762,589.6,2025.129,589.6C1934.035,589.6,1872.847,521.514,1872.847,430.881Zm265,0c0-71.771-44.167-124.679-112.717-124.679-69.011,0-112.717,52.908-112.717,124.679,0,71.311,43.706,124.678,112.717,124.678C2093.679,555.559,2137.846,502.192,2137.846,430.881Z" fill="#ba6323"/></svg>